# xmcd CD database file
#
# Track frame offsets:
#	150
#	16990
#	35209
#	54899
#	72041
#	94263
#	108958
#	124467
#	147831
#	167506
#	182653
#
# Disc length: 2752 seconds
#
# Revision: 0
# Processed by: cddbd v1.4PL0 Copyright (c) Steve Scherf et al.
# Submitted via: CDex 1.40Release
#
DISCID=920abe0b
DTITLE=Yaria Brothers - Bien de Abajo
DYEAR=1995
DGENRE=Blues
TTITLE0=Me Fui
TTITLE1=Mala Nena
TTITLE2=Por el Otro
TTITLE3=Vuelvo a Rodar
TTITLE4=Consentida
TTITLE5=Angel Negro
TTITLE6=Vencido por la Vida
TTITLE7=Sin Sensacion
TTITLE8=Que nos Paren
TTITLE9=El Country
TTITLE10=Quieren Divertirse
EXTD=YEAR: 1995 ID3G: 0
EXTT0=
EXTT1=
EXTT2=
EXTT3=
EXTT4=
EXTT5=
EXTT6=
EXTT7=
EXTT8=
EXTT9=
EXTT10=
PLAYORDER=
